<?xml version="1.0" encoding="UTF-8" standalone="no"?>
<!-- Created with Inkscape (http://www.inkscape.org/) -->

<svg
   xmlns:dc="http://purl.org/dc/elements/1.1/"
   xmlns:cc="http://creativecommons.org/ns#"
   xmlns:rdf="http://www.w3.org/1999/02/22-rdf-syntax-ns#"
   xmlns:svg="http://www.w3.org/2000/svg"
   xmlns="http://www.w3.org/2000/svg"
   xmlns:sodipodi="http://sodipodi.sourceforge.net/DTD/sodipodi-0.dtd"
   xmlns:inkscape="http://www.inkscape.org/namespaces/inkscape"
   width="210mm"
   height="297mm"
   viewBox="0 0 744.09448819 1052.3622047"
   id="svg35091"
   version="1.1"
   inkscape:version="0.91 r13725"
   sodipodi:docname="phase_encoding.svg">
  <sodipodi:namedview
     id="base"
     pagecolor="#ffffff"
     bordercolor="#666666"
     borderopacity="1.0"
     inkscape:pageopacity="0.0"
     inkscape:pageshadow="2"
     inkscape:zoom="0.98994949"
     inkscape:cx="255.27036"
     inkscape:cy="546.95954"
     inkscape:document-units="px"
     inkscape:current-layer="layer1"
     showgrid="false"
     inkscape:window-width="1280"
     inkscape:window-height="755"
     inkscape:window-x="0"
     inkscape:window-y="1"
     inkscape:window-maximized="1"
     inkscape:snap-bbox="true"
     inkscape:bbox-nodes="true"
     inkscape:snap-bbox-edge-midpoints="true"
     inkscape:bbox-paths="true"
     inkscape:snap-bbox-midpoints="true" />
  <defs
     id="defs35093">
    <marker
       inkscape:stockid="Arrow2Mend"
       orient="auto"
       refY="0.0"
       refX="0.0"
       id="Arrow2Mend"
       style="overflow:visible;"
       inkscape:isstock="true">
      <path
         id="path36213"
         style="fill-rule:evenodd;stroke-width:0.625;stroke-linejoin:round;stroke:#000000;stroke-opacity:1;fill:#000000;fill-opacity:1"
         d="M 8.7185878,4.0337352 L -2.2072895,0.016013256 L 8.7185884,-4.0017078 C 6.9730900,-1.6296469 6.9831476,1.6157441 8.7185878,4.0337352 z "
         transform="scale(0.6) rotate(180) translate(0,0)" />
    </marker>
    <marker
       inkscape:stockid="Arrow2Mstart"
       orient="auto"
       refY="0.0"
       refX="0.0"
       id="Arrow2Mstart"
       style="overflow:visible"
       inkscape:isstock="true">
      <path
         id="path36210"
         style="fill-rule:evenodd;stroke-width:0.625;stroke-linejoin:round;stroke:#000000;stroke-opacity:1;fill:#000000;fill-opacity:1"
         d="M 8.7185878,4.0337352 L -2.2072895,0.016013256 L 8.7185884,-4.0017078 C 6.9730900,-1.6296469 6.9831476,1.6157441 8.7185878,4.0337352 z "
         transform="scale(0.6) translate(0,0)" />
    </marker>
    <marker
       inkscape:stockid="Arrow1Send"
       orient="auto"
       refY="0.0"
       refX="0.0"
       id="Arrow1Send"
       style="overflow:visible;"
       inkscape:isstock="true">
      <path
         id="path36201"
         d="M 0.0,0.0 L 5.0,-5.0 L -12.5,0.0 L 5.0,5.0 L 0.0,0.0 z "
         style="fill-rule:evenodd;stroke:#000000;stroke-width:1pt;stroke-opacity:1;fill:#000000;fill-opacity:1"
         transform="scale(0.2) rotate(180) translate(6,0)" />
    </marker>
    <marker
       inkscape:stockid="Arrow1Sstart"
       orient="auto"
       refY="0.0"
       refX="0.0"
       id="Arrow1Sstart"
       style="overflow:visible"
       inkscape:isstock="true">
      <path
         id="path36198"
         d="M 0.0,0.0 L 5.0,-5.0 L -12.5,0.0 L 5.0,5.0 L 0.0,0.0 z "
         style="fill-rule:evenodd;stroke:#000000;stroke-width:1pt;stroke-opacity:1;fill:#000000;fill-opacity:1"
         transform="scale(0.2) translate(6,0)" />
    </marker>
    <marker
       inkscape:stockid="Arrow1Lend"
       orient="auto"
       refY="0.0"
       refX="0.0"
       id="Arrow1Lend"
       style="overflow:visible;"
       inkscape:isstock="true">
      <path
         id="path36189"
         d="M 0.0,0.0 L 5.0,-5.0 L -12.5,0.0 L 5.0,5.0 L 0.0,0.0 z "
         style="fill-rule:evenodd;stroke:#000000;stroke-width:1pt;stroke-opacity:1;fill:#000000;fill-opacity:1"
         transform="scale(0.8) rotate(180) translate(12.5,0)" />
    </marker>
    <marker
       inkscape:stockid="Arrow1Lstart"
       orient="auto"
       refY="0.0"
       refX="0.0"
       id="Arrow1Lstart"
       style="overflow:visible"
       inkscape:isstock="true">
      <path
         id="path36186"
         d="M 0.0,0.0 L 5.0,-5.0 L -12.5,0.0 L 5.0,5.0 L 0.0,0.0 z "
         style="fill-rule:evenodd;stroke:#000000;stroke-width:1pt;stroke-opacity:1;fill:#000000;fill-opacity:1"
         transform="scale(0.8) translate(12.5,0)" />
    </marker>
  </defs>
  <metadata
     id="metadata35096">
    <rdf:RDF>
      <cc:Work
         rdf:about="">
        <dc:format>image/svg+xml</dc:format>
        <dc:type
           rdf:resource="http://purl.org/dc/dcmitype/StillImage" />
        <dc:title></dc:title>
      </cc:Work>
    </rdf:RDF>
  </metadata>
  <g
     id="layer1"
     inkscape:groupmode="layer"
     inkscape:label="Layer 1">
    <path
       id="path36160"
       title="sin(7*x)"
       d="m 28.571428,454.29848 637.142882,0 m -637.142882,50.24584 0,-100.49166 m 0,50.24582 c 0.59159,-0.46653 1.183181,-9.26891 1.774771,-9.73527 0.591591,-0.46635 1.183181,-8.9005 1.774772,-9.36631 0.59159,-0.46581 1.18318,-8.17747 1.774771,-8.64238 0.59159,-0.46491 1.183181,-7.12726 1.774771,-7.5909 0.59159,-0.46365 1.183181,-5.78972 1.774771,-6.25174 0.591591,-0.46201 1.183181,-4.2156 1.774772,-4.67563 0.59159,-0.46004 1.18318,-2.46464 1.774771,-2.92234 0.59159,-0.45769 1.183181,-0.60327 1.774771,-1.05827 0.59159,-0.455 1.183181,1.29785 1.774771,0.8459 0.591591,-0.45195 1.183181,3.16656 1.774772,2.71801 0.59159,-0.44856 1.18318,4.9319 1.774771,4.48709 0.59159,-0.4448 1.183181,6.52686 1.774771,6.08615 0.59159,-0.44072 1.183181,7.89079 1.774771,7.45452 0.591591,-0.43628 1.183181,8.97188 1.774772,8.54037 0.59159,-0.4315 1.18318,9.72897 1.774771,9.30257 0.59159,-0.4264 1.183181,10.13315 1.774771,9.71219 0.59159,-0.42097 1.183181,10.16892 1.774771,9.75372 0.591591,-0.4152 1.183181,9.83472 1.774772,9.42561 0.59159,-0.40911 1.18318,9.14297 1.774771,8.74026 0.59159,-0.4027 1.183181,8.11966 1.774771,7.72368 0.59159,-0.39599 1.183181,6.80332 1.774771,6.41435 0.591591,-0.38896 1.183181,5.24359 1.774772,4.86195 0.59159,-0.38165 1.18318,3.49928 1.774771,3.12526 0.59159,-0.37401 1.183181,1.63625 1.774771,1.27015 0.591591,-0.36611 1.183181,-0.27521 1.774771,-0.63312 0.591591,-0.35791 1.183181,-2.16294 1.774772,-2.51239 0.59159,-0.34943 1.18318,-3.95573 1.774771,-4.29643 0.59159,-0.34069 1.183181,-5.58596 1.774771,-5.91764 0.591591,-0.33169 1.183181,-6.99218 1.774771,-7.31459 0.591591,-0.32242 1.183181,-8.12142 1.774772,-8.43432 0.59159,-0.3129 1.18318,-8.93124 1.774771,-9.23438 0.59159,-0.30315 1.183181,-9.39133 1.774771,-9.68449 0.591591,-0.29314 1.183181,-9.48461 1.774771,-9.76754 0.591591,-0.28292 1.183181,-9.20792 1.774772,-9.48041 0.59159,-0.27248 1.18318,-8.57216 1.774771,-8.83399 0.59159,-0.26183 1.183181,-7.60179 1.774771,-7.85277 0.591591,-0.25097 1.183181,-6.33399 1.774771,-6.57392 0.591591,-0.23992 1.183181,-4.81725 1.774772,-5.04594 0.59159,-0.22869 1.18318,-3.10944 1.774771,-3.32672 0.59159,-0.21727 1.183181,-1.27572 1.774771,-1.48141 0.591592,-0.20569 1.183182,0.61399 1.774772,0.42004 0.59159,-0.19395 1.18318,2.48763 1.77477,2.30557 0.59159,-0.18206 1.18318,4.27374 1.77477,4.10372 0.59159,-0.17002 1.18318,5.90419 1.77477,5.74634 0.59159,-0.15786 1.18318,7.31674 1.77477,7.17118 0.59159,-0.14557 1.18319,8.4574 1.77478,8.32423 0.59159,-0.13316 1.18318,9.28248 1.77477,9.16182 0.59159,-0.12066 1.18318,9.76022 1.77477,9.65216 0.59159,-0.10806 1.18318,9.87208 1.77477,9.7767 0.59159,-0.0954 1.18318,9.61334 1.77477,9.53071 0.59159,-0.0826 1.18318,8.99332 1.77477,8.92351 0.59159,-0.0698 1.18318,8.03506 1.77477,7.97813 0.59159,-0.0569 1.18318,6.77437 1.77477,6.73036 0.59159,-0.044 1.18319,5.25859 1.77478,5.22754 0.59159,-0.031 1.18318,3.54466 1.77477,3.52658 0.59159,-0.0181 1.18318,1.69706 1.77477,1.69197 0.59159,-0.005 1.18318,-0.21466 1.77477,-0.20676 0.59159,0.008 1.18318,-2.11855 1.77477,-2.09765 0.59159,0.0209 1.18318,-3.94292 1.77477,-3.90905 0.59159,0.0338 1.18318,-5.61911 1.77477,-5.5723 0.59159,0.0468 1.18318,-7.08408 1.77477,-7.02435 0.59159,0.0597 1.18319,-8.28279 1.77478,-8.2102 0.59159,0.0726 1.18318,-9.17028 1.77477,-9.08489 0.59159,0.0854 1.18318,-9.71338 1.77477,-9.61524 0.59159,0.0981 1.18318,-9.89202 1.77477,-9.78122 0.59159,0.1108 1.18318,-9.69985 1.77477,-9.57647 0.59159,0.12338 1.18318,-9.14465 1.77477,-9.00879 0.59159,0.13586 1.18318,-8.24792 1.77477,-8.09968 0.59159,0.14824 1.18318,-7.04411 1.77477,-6.8836 0.59159,0.1605 1.18319,-5.57929 1.77478,-5.40664 0.59159,0.17264 1.18318,-3.90942 1.77477,-3.72477 0.59159,0.18464 1.18318,-2.09824 1.77477,-1.90173 0.59159,0.19651 1.18318,-0.21484 1.77477,-0.007 0.59159,0.20822 1.18318,1.66898 1.77477,1.88875 0.59159,0.21976 1.18318,3.48138 1.77477,3.71252 0.59159,0.23114 1.18318,5.15327 1.77477,5.3956 0.59159,0.24234 1.18318,6.62084 1.77477,6.87419 0.59159,0.25335 1.18319,7.8281 1.77478,8.09225 0.59159,0.26416 1.18318,8.72886 1.77477,9.00363 0.59159,0.27477 1.18318,9.2886 1.77477,9.57376 0.59159,0.28517 1.18318,9.48574 1.77477,9.78107 0.59159,0.29533 1.18318,9.3124 1.77477,9.61768 0.59159,0.30527 1.18318,8.77479 1.77477,9.08978 0.59159,0.31498 1.18318,7.89294 1.77477,8.21739 0.59159,0.32444 1.18318,6.6999 1.77477,7.03355 0.59159,0.33367 1.18319,5.24056 1.77478,5.58318 0.59159,0.34261 1.18318,3.56988 1.77477,3.92118 0.59159,0.3513 1.18318,1.75087 1.77477,2.11058 0.59159,0.35972 1.18318,-0.14785 1.77477,0.22 0.59159,0.36785 1.18318,-2.05463 1.77477,-1.67893 0.59159,0.37569 1.18318,-3.89749 1.77477,-3.51423 0.59159,0.38325 1.18318,-5.60686 1.77477,-5.21634 0.59159,0.39051 1.18318,-7.11823 1.77477,-6.72076 0.59159,0.39748 1.18319,-8.37457 1.77478,-7.97045 0.59159,0.40412 1.18318,-9.32854 1.77477,-8.91809 0.59159,0.41046 1.18318,-9.94419 1.77477,-9.52772 0.59159,0.41648 1.18318,-10.19844 1.77477,-9.77626 0.59159,0.42216 1.18318,-10.08184 1.77477,-9.6543 0.59159,0.42753 1.18318,-9.59902 1.77477,-9.16645 0.59159,0.43257 1.18318,-8.76845 1.77477,-8.33118 0.59159,0.43727 1.18318,-7.62181 1.77477,-7.18018 0.5916,0.44163 1.18319,-6.20269 1.77478,-5.75705 0.59159,0.44565 1.18318,-4.56504 1.77477,-4.11573 0.59159,0.44932 1.18318,-2.77107 1.77477,-2.31843 0.59159,0.45265 1.18318,-0.88888 1.77477,-0.43326 0.59159,0.45561 1.18318,1.01009 1.77477,1.46832 0.59159,0.45824 1.18318,2.85377 1.77477,3.31427 0.59159,0.46049 1.18318,4.57219 1.77477,5.03459 0.59159,0.4624 1.18318,6.10017 1.77477,6.56412 0.5916,0.46394 1.18319,7.37972 1.77478,7.84486 0.59159,0.46513 1.18318,8.36234 1.77477,8.8283 0.59159,0.46596 1.18318,9.01072 1.77477,9.47715 0.59159,0.46642 1.18318,9.30029 1.77477,9.76681 0.59159,0.46653 1.18318,9.22007 1.77477,9.68633 0.59159,0.46627 1.18318,8.7731 1.77477,9.23875 0.59159,0.46564 1.18318,7.97635 1.77477,8.44101 0.59159,0.46467 1.18318,6.86005 1.77477,7.32337 0.5916,0.46332 1.18319,5.46657 1.77478,5.92819 0.59159,0.46162 1.18318,3.84876 1.77477,4.30832 0.59159,0.45955 1.18318,2.06803 1.77477,2.52517 0.59159,0.45714 1.18318,0.19196 1.77477,0.64633 0.59159,0.45437 1.18318,-1.70826 1.77477,-1.25702 0.59159,0.45125 1.18318,-3.56048 1.77477,-3.11271 0.59159,0.44776 1.18318,-5.29441 1.77477,-4.85046 0.59159,0.44395 1.18318,-6.84413 1.77477,-6.40435 0.5916,0.43978 1.18319,-8.15082 1.77478,-7.71554 0.59159,0.43527 1.18318,-9.16475 1.77477,-8.73432 0.59159,0.43043 1.18318,-9.8473 1.77477,-9.42205 0.59159,0.42524 1.18318,-10.17247 1.77477,-9.75273 0.59159,0.41974 1.18318,-10.12765 1.77477,-9.71375 0.59159,0.41391 1.18318,-9.7144 1.77477,-9.30664 0.59159,0.40775 1.18318,-8.94811 1.77477,-8.54683 0.59159,0.40128 1.18318,-7.85758 1.77477,-7.46309 0.5916,0.3945 1.18319,-6.4839 1.77478,-6.0965 0.59159,0.38741 1.18318,-4.87887 1.77477,-4.49885 0.59159,0.38001 1.18318,-3.10305 1.77477,-2.73072 0.59159,0.37232 1.18318,-1.22344 1.77477,-0.85909 0.59159,0.36436 1.18318,0.68902 1.77477,1.04511 0.59159,0.3561 1.18318,2.56213 1.77477,2.9097 0.59159,0.34756 1.18318,4.32524 1.77477,4.664 0.59159,0.33876 1.18318,5.91185 1.77477,6.24155 0.5916,0.3297 1.18319,7.26217 1.77478,7.58254 0.59159,0.32038 1.18318,8.32537 1.77477,8.63618 0.59159,0.3108 1.18318,9.06149 1.77477,9.36248 0.59159,0.301 1.18318,9.44303 1.77477,9.73398 0.59159,0.29095 1.18318,9.45587 1.77477,9.73655 0.59159,0.28068 1.18318,9.09993 1.77477,9.37013 0.59159,0.27019 1.18318,8.38907 1.77477,8.64857 0.59159,0.25949 1.18318,7.35064 1.77477,7.59924 0.5916,0.24859 1.18319,6.02441 1.77478,6.26191 0.59159,0.23751 1.18318,4.46103 1.77477,4.68726 0.59159,0.22623 1.18318,2.72019 1.77477,2.93496 0.59159,0.21478 1.18318,0.86828 1.77477,1.07143 0.59159,0.20316 1.18318,-1.02408 1.77477,-0.8327 0.59159,0.19138 1.18318,-2.88474 1.77477,-2.70528 0.59159,0.17945 1.18318,-4.64274 1.77477,-4.47534 0.59159,0.1674 1.18318,-6.23097 1.77477,-6.07577 0.5916,0.1552 1.18319,-7.58883 1.77478,-7.44594 0.59159,0.14289 1.18318,-8.66438 1.77477,-8.53392 0.59159,0.13047 1.18318,-9.4164 1.77477,-9.29846 0.59159,0.11794 1.18318,-9.81592 1.77477,-9.7106 0.59159,0.10531 1.18318,-9.84734 1.77477,-9.75472 0.59159,0.0926 1.18318,-9.50899 1.77477,-9.42914 0.59159,0.0799 1.18318,-8.81322 1.77477,-8.7462 0.59159,0.067 1.18318,-7.78592 1.77477,-7.73179 0.5916,0.0541 1.18319,-6.46555 1.77478,-6.42435 0.59159,0.0412 1.18318,-4.90167 1.77477,-4.87342 0.59159,0.0282 1.18318,-3.15307 1.77477,-3.13781 0.59159,0.0152 1.18318,-1.28554 1.77477,-1.28327 0.59159,0.002 1.18318,0.63063 1.77477,0.61991 0.59159,-0.0107 1.18318,2.52329 1.77477,2.49958 0.59159,-0.0237 1.18318,4.32122 1.77477,4.28454 0.59159,-0.0367 1.18318,5.95672 1.77477,5.9071 0.5916,-0.0496 1.18319,7.36831 1.77478,7.30579 0.59159,-0.0625 1.18318,8.50297 1.77477,8.4276 0.59159,-0.0754 1.18318,9.31818 1.77477,9.23002 0.59159,-0.0882 1.18318,9.7835 1.77477,9.6826 0.59159,-0.10088 1.18318,9.88179 1.77477,9.76825 0.59159,-0.11354 1.18318,9.60976 1.77477,9.48367 0.59159,-0.1261 1.18318,8.97822 1.77477,8.83966 0.59159,-0.13856 1.18318,8.01156 1.77477,7.86066 0.5916,-0.15091 1.18319,6.74686 1.77478,6.58372 0.59159,-0.16315 1.18318,5.23253 1.77477,5.05727 0.59159,-0.17525 1.18318,3.52639 1.77477,3.33917 0.59159,-0.18724 1.18318,1.69355 1.77477,1.49449 0.59159,-0.19906 1.18318,-0.19608 1.77477,-0.40681 0.59159,-0.21074 1.18318,-2.07046 1.77477,-2.2927 0.59159,-0.22225 1.18318,-3.85811 1.77477,-4.0917 0.59159,-0.23358 1.18318,-5.49088 1.77477,-5.73562 0.5916,-0.24474 1.18319,-6.90646 1.77478,-7.16217 0.59159,-0.25571 1.18318,-8.0508 1.77477,-8.31728 0.59159,-0.26647 1.18318,-8.88012 1.77477,-9.15716 0.59159,-0.27704 1.18318,-9.36263 1.77477,-9.65001 0.59159,-0.28739 1.18318,-9.47961 1.77477,-9.77712 0.59159,-0.29751 1.18318,-9.22628 1.77477,-9.53368 0.59159,-0.3074 1.18318,-8.61187 1.77477,-8.92893 0.59159,-0.31706 1.18318,-7.65931 1.77477,-7.98577 0.5916,-0.32647 1.18319,-6.40435 1.77478,-6.73997 0.59159,-0.33562 1.18318,-4.89419 1.77477,-5.23872 0.59159,-0.34452 1.18318,-3.18578 1.77477,-3.53892 0.59159,-0.35315 1.18318,-1.34351 1.77477,-1.70501 0.59159,-0.3615 1.18318,0.5631 1.77477,0.19352 0.59159,-0.36957 1.18318,2.46209 1.77477,2.08472 0.59159,-0.37736 1.18318,4.28177 1.77477,3.89692 0.59159,-0.38486 1.18318,5.95346 1.77477,5.56141 0.5916,-0.39206 1.18319,7.41408 1.77478,7.01513 0.59159,-0.39894 1.18318,8.60852 1.77477,8.203 0.59159,-0.40553 1.18318,9.49175 1.77477,9.07996 0.59159,-0.41179 1.18318,10.03055 1.77477,9.61281 0.59159,-0.41773 1.18318,10.2047 1.77477,9.78134 0.59159,-0.42336 1.18318,10.00782 1.77477,9.57916 0.59159,-0.42865 1.18318,9.44756 1.77477,9.01394 0.59159,-0.43362 1.18318,8.54535 1.77477,8.1071 0.5916,-0.43824 1.18319,7.33553 1.77478,6.893 0.59159,-0.44253 1.18318,5.86414 1.77477,5.41767 0.59159,-0.44648 1.18318,4.18707 1.77477,3.737 0.59159,-0.45007 1.18318,2.36803 1.77477,1.91471 0.59159,-0.45331 1.18318,0.47608 1.77477,0.0199 0.59159,-0.45621 1.18318,-1.417 1.77477,-1.87575 0.59159,-0.45875 1.18318,-3.23933 1.77477,-3.70027 0.59159,-0.46094 1.18318,-4.92179 1.77478,-5.38455 0.59159,-0.46277 1.18318,-6.40053 1.77477,-6.86477 0.59159,-0.46424 1.18318,-7.61946 1.77477,-8.08481 0.59159,-0.46534 1.18318,-8.53235 1.77477,-8.99844 0.59159,-0.46609 1.18318,-9.10456 1.77477,-9.57104 0.59159,-0.46648 1.18318,-9.31441 1.77477,-9.7809 0.59159,-0.46651 1.18318,-9.15392 1.77477,-9.62009 0.59159,-0.46616 1.18318,-8.62919 1.77477,-9.09466 0.59159,-0.46546 1.18318,-7.76016 1.77478,-8.22456 0.59159,-0.4644 1.18318,-6.57977 1.77477,-7.04275 0.59159,-0.46299 1.18318,-5.13284 1.77477,-5.59404 0.59159,-0.46121 1.18318,-3.47424 1.77477,-3.93331 0.59159,-0.45906 1.18318,-1.66694 1.77477,-2.1235 0.59159,-0.45657 1.18318,0.22049 1.77477,-0.23324 0.59159,-0.45372 1.18318,2.11641 1.77477,1.6659 0.59159,-0.45052 1.18318,3.94884 1.77477,3.50187 0.59159,-0.44697 1.18318,5.64821 1.77478,5.20513 0.59159,-0.44307 1.18318,7.14996 1.77477,6.71113 0.59159,-0.43884 1.18318,8.39703 1.77477,7.96277 0.59159,-0.43425 1.18318,9.34197 1.77477,8.91264 0.59159,-0.42934 1.18318,9.9488 1.77477,9.52472 0.59159,-0.42409 1.18318,10.19432 1.77477,9.77581 0.59159,-0.4185 1.18318,10.06902 1.77477,9.65643 0.59159,-0.4126 1.18318,9.57742 1.77477,9.17105 0.59159,-0.40637 1.18318,8.73794 1.77478,8.33811 0.59159,-0.39983 1.18318,7.58215 1.77477,7.18916 0.59159,-0.39298 1.18318,6.15358 1.77477,5.76775 0.59159,-0.38583 1.18318,4.5061 1.77477,4.12774 0.59159,-0.37838 1.18318,2.70191 1.77477,2.33129 0.59159,-0.37063 1.18318,0.80907 1.77477,0.44648 0.59159,-0.36259 1.18318,-1.10096 1.77477,-1.45523 0.59159,-0.35427 1.18318,-2.95613 1.77477,-3.3018 0.59159,-0.34568 1.18318,-4.68643 1.77478,-5.02325 0.59159,-0.33681 1.18318,-6.22659 1.77477,-6.55429 0.59159,-0.3277 1.18318,-7.51863 1.77477,-7.83695 0.59159,-0.31832 1.18318,-8.51389 1.77477,-8.82259 0.59159,-0.3087 1.18318,-9.17502 1.77477,-9.47386 0.59159,-0.29883 1.18318,-9.47733 1.77477,-9.76608 0.59159,-0.28874 1.18318,-9.40974 1.77477,-9.68816 0.59159,-0.27843 1.18318,-8.9752 1.77477,-9.24309 0.59159,-0.26789 1.18318,-8.19054 1.77478,-8.44769 0.59159,-0.25715 1.18318,-7.08594 1.77477,-7.33215 0.59159,-0.2462 1.18318,-5.70363 1.77477,-5.93871 0.59159,-0.23507 1.18318,-4.09644 1.77477,-4.32019 0.59159,-0.22377 1.18318,-2.3257 1.77477,-2.53797 0.59159,-0.21227 1.18318,-0.45892 1.77477,-0.65954 0.59159,-0.20061 1.18318,1.4327 1.77477,1.24389 0.59159,-0.18881 1.18318,3.27702 1.77477,3.10017 0.59159,-0.17686 1.18318,5.00371 1.77478,4.83895 0.59159,-0.16476 1.18318,6.54688 1.77477,6.39434 0.59159,-0.15254 1.18318,7.8476 1.77477,7.7074 0.59159,-0.1402 1.18318,8.8561 1.77477,8.72834 0.59159,-0.12775 1.18318,9.5337 1.77477,9.4185 0.59159,-0.11521 1.18318,9.85426 1.77477,9.75169 0.59159,-0.10258 1.18318,9.80516 1.77477,9.7153 0.59159,-0.0899 1.18318,9.38779 1.77477,9.31072 0.59159,-0.0771 1.18318,8.61747 1.77478,8.55325 0.59159,-0.0642 1.18318,7.52297 1.77477,7.47164 0.59159,-0.0513 1.18318,6.14524 1.77477,6.10684 0.59159,-0.0384 1.18318,4.53605 1.77477,4.51061 0.59159,-0.0254 1.18318,2.75588 1.77477,2.74343 0.59159,-0.0124 1.18318,0.87172 1.77477,0.87227 0.59159,5.1e-4 1.18318,-1.04548 1.77477,-1.03194 0.59159,0.0136 1.18318,-2.92358 1.77477,-2.89705 0.59159,0.0265 1.18318,-4.69185 1.77478,-4.65237 0.59159,0.0395 1.18318,-6.28376 1.77477,-6.23135 0.59159,0.0524 1.18318,-7.63948 1.77477,-7.57418 0.59159,0.0653 1.18318,-8.70809 1.77477,-8.62994 0.59159,0.0781 1.18318,-9.44957 1.77477,-9.35864 0.59159,0.0909 1.18318,-9.8363 1.77477,-9.73267 0.59159,0.10364 1.18318,-9.85408 1.77477,-9.73781 0.59159,0.11627 1.18318,-9.50272 1.77477,-9.37392 0.59159,0.12881 1.18318,-8.79599 1.77478,-8.65474 0.59159,0.14124 1.18318,-7.76115 1.77477,-7.60758 0.59159,0.15358 1.18318,-6.43786 1.77477,-6.27207 0.59159,0.16578 1.18318,-4.87674 1.77477,-4.69887 0.59159,0.17786 1.18318,-3.1374 1.77477,-2.9476 0.59159,0.18982 1.18318,-1.28619 1.77477,-1.08458 0.59159,0.2016 1.18318,0.60627 1.77477,0.81951 0.59159,0.21325 1.18318,2.46784 1.77477,2.69256 0.59159,0.22472 1.18318,4.22754 1.77478,4.46356 0.59159,0.23602 1.18318,5.81825 1.77477,6.06539 0.59159,0.24713 1.18318,7.17929 1.77477,7.43735 0.59159,0.25806 1.18318,8.25865 1.77477,8.52744 0.59159,0.26879 1.18318,9.01504 1.77477,9.29434 0.59159,0.2793 1.18318,9.4194 1.77477,9.709 0.59159,0.2896 1.18318,9.45602 1.77477,9.7557 0.59159,0.29967 1.18318,9.12313 1.77477,9.43265 0.59159,0.30952 1.18318,8.433 1.77478,8.75212 0.59159,0.31912 1.18318,7.41141 1.77477,7.73989 0.59159,0.32848 1.18318,6.09675 1.77477,6.43432 0.59159,0.33758 1.18318,4.53849 1.77477,4.8849 0.59159,0.34642 1.18318,2.79536 1.77477,3.15035 0.59159,0.35498 1.18318,0.93311 1.77477,1.29639 0.59159,0.36328 1.18318,-0.97798 1.77477,-0.60669 0.59159,0.37128 1.18318,-2.8658 1.77477,-2.48679 0.59159,0.37901 1.18318,-4.65907 1.77478,-4.27263 0.59159,0.38644 1.18318,-6.29011 1.77477,-5.89654 0.59159,0.39357 1.18318,-7.69738 1.77477,-7.29699 0.59159,0.40039 1.18318,-8.82778 1.77477,-8.42087 0.59159,0.40691 1.18318,-9.63873 1.77477,-9.22562 0.59159,0.4131 1.18318,-10.09971 1.77477,-9.68072 0.59159,0.41898 1.18318,-10.19347 1.77477,-9.76893 0.59159,0.42454 1.18318,-9.91666 1.77477,-9.4869 0.59159,0.42976 1.18318,-9.27998 1.77478,-8.84533 0.59159,0.43465 1.18318,-8.30773 1.77477,-7.86852 0.59159,0.4392 1.18318,-7.03693 1.77477,-6.59351 0.59159,0.44341 1.18318,-5.51589 1.77477,-5.0686 0.59159,0.44728 1.18318,-3.80241 1.77477,-3.3516 0.59159,0.4508 1.18318,-1.96156 1.77477,-1.50758 0.59159,0.45397 1.18318,-0.0632 1.77477,0.39358 0.59159,0.45679 1.18318,1.82057 1.77477,2.27983 0.59159,0.45926 1.18318,3.6183 1.77478,4.07967 0.59159,0.46136 1.18318,5.26177 1.77477,5.72489 0.59159,0.46312 1.18318,6.68864 1.77477,7.15315 0.59159,0.4645 1.18318,7.84476 1.77477,8.3103 0.59159,0.46554 1.18318,8.6863 1.77477,9.15251 0.59159,0.4662 2.27985,12.99477 2.27985,12.99477"
       style="fill:none;fill-opacity:1;stroke:#000000;stroke-width:1;stroke-linecap:round;stroke-linejoin:miter;stroke-miterlimit:0;stroke-dasharray:none;stroke-opacity:1"
       inkscape:connector-curvature="0"
       sodipodi:nodetypes="cccccsssssssssssssssssssssssssssssssssssssssssssssssssssssssssssssssssssssssssssssssssssssssssssssssssssssssssssssssssssssssssssssssssssssssssssssssssssssssssssssssssssssssssssssssssssssssssssssssssssssssssssssssssssssssssssssssssssssssssssssssssssssssssssssssssssssssssssssssssssssssssssssssssssssssssssssssssssssssssssssssssssssssssssssssssc" />
    <path
       style="fill:none;fill-opacity:1;stroke:#000000;stroke-width:1;stroke-linecap:round;stroke-linejoin:miter;stroke-miterlimit:0;stroke-dasharray:none;stroke-opacity:1"
       d="m 28.571428,554.20751 637.714312,0 m -637.714312,50.24583 0,-100.49166 m 0,50.24583 c 0.59159,-0.46654 1.183181,-9.26892 1.774771,-9.73528 0.591591,-0.46635 1.183181,-8.9005 1.774772,-9.36631 0.59159,-0.46581 1.18318,-8.17747 1.774771,-8.64238 0.59159,-0.4649 1.183181,-7.12726 1.774771,-7.5909 0.59159,-0.46364 1.183181,-5.78972 1.774771,-6.25173 0.591591,-0.46202 1.183181,-4.2156 1.774772,-4.67564 0.59159,-0.46004 1.18318,-2.46464 1.774771,-2.92233 0.59159,-0.45769 1.183181,-0.60328 1.774771,-1.05827 0.59159,-0.455 1.183181,1.29784 1.774771,0.84589 0.591591,-0.45195 1.183181,3.16656 1.774772,2.71801 0.59159,-0.44856 1.18318,4.9319 1.774771,4.4871 0.59159,-0.44481 1.183181,6.52685 1.774771,6.08614 0.59159,-0.44071 1.183181,7.8908 1.774771,7.45452 0.591591,-0.43628 1.183181,8.97189 1.774772,8.54038 0.59159,-0.43151 1.18318,9.72896 1.774771,9.30256 0.59159,-0.4264 1.183181,10.13315 1.774771,9.71219 0.59159,-0.42097 1.183181,10.16892 1.774771,9.75372 0.591591,-0.4152 1.183181,9.83472 1.774772,9.42561 0.59159,-0.40911 1.18318,9.14297 1.774771,8.74026 0.59159,-0.4027 1.183181,8.11967 1.774771,7.72368 0.59159,-0.39599 1.183181,6.80332 1.774771,6.41435 0.591591,-0.38896 1.183181,5.24359 1.774772,4.86195 0.59159,-0.38164 1.18318,3.49929 1.774771,3.12526 0.59159,-0.37401 1.183181,1.63625 1.774771,1.27015 0.591591,-0.36611 1.183181,-0.27521 1.774771,-0.63312 0.591591,-0.35791 1.183181,-2.16294 1.774772,-2.51238 0.59159,-0.34944 1.18318,-3.95574 1.774771,-4.29643 0.59159,-0.3407 1.183181,-5.58597 1.774771,-5.91765 0.591591,-0.33169 1.183181,-6.99217 1.774771,-7.31459 0.591591,-0.32242 1.183181,-8.12142 1.774772,-8.43432 0.59159,-0.3129 1.18318,-8.93124 1.774771,-9.23438 0.59159,-0.30314 1.183181,-9.39133 1.774771,-9.68448 0.591591,-0.29315 1.183181,-9.48462 1.774771,-9.76754 0.591591,-0.28293 1.183181,-9.20793 1.774772,-9.48042 0.59159,-0.27248 1.18318,-8.57215 1.774771,-8.83399 0.59159,-0.26183 1.183181,-7.60179 1.774771,-7.85276 0.591591,-0.25098 1.183181,-6.334 1.774771,-6.57393 0.591591,-0.23992 1.183181,-4.81725 1.774772,-5.04594 0.59159,-0.22869 1.18318,-3.10944 1.774771,-3.32671 0.59159,-0.21727 1.183181,-1.27572 1.774771,-1.48141 0.591592,-0.20569 1.183182,0.61398 1.774772,0.42004 0.59159,-0.19395 1.18318,2.48762 1.77477,2.30556 0.59159,-0.18205 1.18318,4.27374 1.77477,4.10372 0.59159,-0.17002 1.18318,5.90419 1.77477,5.74634 0.59159,-0.15785 1.18318,7.31675 1.77477,7.17118 0.59159,-0.14557 1.18319,8.4574 1.77478,8.32424 0.59159,-0.13317 1.18318,9.28247 1.77477,9.16181 0.59159,-0.12066 1.18318,9.76022 1.77477,9.65216 0.59159,-0.10806 1.18318,9.87208 1.77477,9.77671 0.59159,-0.0954 1.18318,9.61333 1.77477,9.53071 0.59159,-0.0826 1.18318,8.99331 1.77477,8.92351 0.59159,-0.0698 1.18318,8.03505 1.77477,7.97812 0.59159,-0.0569 1.18318,6.77438 1.77477,6.73037 0.59159,-0.044 1.18319,5.25859 1.77478,5.22753 0.59159,-0.031 1.18318,3.54466 1.77477,3.52658 0.59159,-0.0181 1.18318,1.69706 1.77477,1.69198 0.59159,-0.005 1.18318,-0.21467 1.77477,-0.20676 0.59159,0.008 1.18318,-2.11856 1.77477,-2.09766 0.59159,0.0209 1.18318,-3.94292 1.77477,-3.90905 0.59159,0.0339 1.18318,-5.61911 1.77477,-5.5723 0.59159,0.0468 1.18318,-7.08408 1.77477,-7.02435 0.59159,0.0597 1.18319,-8.28279 1.77478,-8.2102 0.59159,0.0726 1.18318,-9.17027 1.77477,-9.08488 0.59159,0.0854 1.18318,-9.71339 1.77477,-9.61525 0.59159,0.0981 1.18318,-9.89202 1.77477,-9.78122 0.59159,0.1108 1.18318,-9.69985 1.77477,-9.57647 0.59159,0.12338 1.18318,-9.14465 1.77477,-9.00879 0.59159,0.13586 1.18318,-8.24792 1.77477,-8.09968 0.59159,0.14824 1.18318,-7.0441 1.77477,-6.8836 0.59159,0.1605 1.18319,-5.57928 1.77478,-5.40664 0.59159,0.17264 1.18318,-3.90941 1.77477,-3.72477 0.59159,0.18465 1.18318,-2.09824 1.77477,-1.90173 0.59159,0.19651 1.18318,-0.21483 1.77477,-0.007 0.59159,0.20822 1.18318,1.66898 1.77477,1.88875 0.59159,0.21976 1.18318,3.48138 1.77477,3.71252 0.59159,0.23114 1.18318,5.15327 1.77477,5.3956 0.59159,0.24234 1.18318,6.62085 1.77477,6.87419 0.59159,0.25335 1.18319,7.8281 1.77478,8.09226 0.59159,0.26415 1.18318,8.72885 1.77477,9.00362 0.59159,0.27477 1.18318,9.28861 1.77477,9.57377 0.59159,0.28516 1.18318,9.48573 1.77477,9.78106 0.59159,0.29534 1.18318,9.3124 1.77477,9.61768 0.59159,0.30528 1.18318,8.77479 1.77477,9.08978 0.59159,0.31499 1.18318,7.89294 1.77477,8.21739 0.59159,0.32445 1.18318,6.6999 1.77477,7.03356 0.59159,0.33366 1.18319,5.24056 1.77478,5.58317 0.59159,0.34261 1.18318,3.56988 1.77477,3.92118 0.59159,0.3513 1.18318,1.75087 1.77477,2.11059 0.59159,0.35971 1.18318,-0.14786 1.77477,0.21999 0.59159,0.36785 1.18318,-2.05463 1.77477,-1.67893 0.59159,0.37569 1.18318,-3.89749 1.77477,-3.51423 0.59159,0.38325 1.18318,-5.60686 1.77477,-5.21634 0.59159,0.39052 1.18318,-7.11823 1.77477,-6.72075 0.59159,0.39747 1.18319,-8.37458 1.77478,-7.97046 0.59159,0.40412 1.18318,-9.32854 1.77477,-8.91808 0.59159,0.41045 1.18318,-9.9442 1.77477,-9.52773 0.59159,0.41648 1.18318,-10.19843 1.77477,-9.77626 0.59159,0.42216 1.18318,-10.08184 1.77477,-9.6543 0.59159,0.42753 1.18318,-9.59902 1.77477,-9.16645 0.59159,0.43257 1.18318,-8.76845 1.77477,-8.33118 0.59159,0.43727 1.18318,-7.6218 1.77477,-7.18018 0.5916,0.44163 1.18319,-6.20269 1.77478,-5.75704 0.59159,0.44565 1.18318,-4.56505 1.77477,-4.11574 0.59159,0.44932 1.18318,-2.77107 1.77477,-2.31843 0.59159,0.45265 1.18318,-0.88888 1.77477,-0.43326 0.59159,0.45562 1.18318,1.01009 1.77477,1.46833 0.59159,0.45823 1.18318,2.85376 1.77477,3.31426 0.59159,0.46049 1.18318,4.57219 1.77477,5.03459 0.59159,0.4624 1.18318,6.10017 1.77477,6.56412 0.5916,0.46394 1.18319,7.37973 1.77478,7.84486 0.59159,0.46514 1.18318,8.36234 1.77477,8.8283 0.59159,0.46596 1.18318,9.01072 1.77477,9.47715 0.59159,0.46642 1.18318,9.30029 1.77477,9.76681 0.59159,0.46653 1.18318,9.22007 1.77477,9.68634 0.59159,0.46626 1.18318,8.77309 1.77477,9.23874 0.59159,0.46564 1.18318,7.97635 1.77477,8.44101 0.59159,0.46467 1.18318,6.86005 1.77477,7.32338 0.5916,0.46331 1.18319,5.46656 1.77478,5.92818 0.59159,0.46162 1.18318,3.84876 1.77477,4.30832 0.59159,0.45956 1.18318,2.06804 1.77477,2.52518 0.59159,0.45714 1.18318,0.19195 1.77477,0.64632 0.59159,0.45437 1.18318,-1.70826 1.77477,-1.25701 0.59159,0.45124 1.18318,-3.56049 1.77477,-3.11272 0.59159,0.44777 1.18318,-5.2944 1.77477,-4.85046 0.59159,0.44395 1.18318,-6.84413 1.77477,-6.40435 0.5916,0.43978 1.18319,-8.15081 1.77478,-7.71554 0.59159,0.43527 1.18318,-9.16474 1.77477,-8.73431 0.59159,0.43043 1.77477,-9.42206 1.77477,-9.42206 0,0 1.26674,-10.17246 1.775,-9.75272 0.50826,0.41974 1.04704,-10.12766 1.52477,-9.71375 0.47773,0.4139 0.95546,-9.7144 1.43319,-9.30665 0.47774,0.40775 0.95547,-8.9481 1.4332,-8.54683 0.47773,0.40128 0.95546,-7.85758 1.43319,-7.46308 0.47775,0.39449 0.95547,-6.48391 1.43321,-6.0965 0.47773,0.3874 0.95546,-4.87888 1.43319,-4.49886 0.47774,0.38001 0.95546,-3.10305 1.4332,-2.73072 0.47773,0.37233 0.95546,-1.22344 1.43319,-0.85908 0.47774,0.36435 0.95546,0.68901 1.4332,1.04511 0.47773,0.3561 0.95546,2.56212 1.43319,2.90969 0.47774,0.34756 0.95546,4.32524 1.4332,4.664 0.47773,0.33876 0.95546,5.91185 1.43319,6.24155 0.47775,0.3297 0.95547,7.26217 1.43321,7.58255 0.47773,0.32037 0.95546,8.32536 1.43319,8.63617 0.47774,0.3108 0.95546,9.06149 1.4332,9.36248 0.47773,0.301 0.95546,9.44303 1.43319,9.73398 0.47774,0.29095 0.95546,9.45588 1.4332,9.73655 0.47773,0.28069 0.95546,9.09994 1.43319,9.37013 0.47774,0.27019 0.95546,8.38907 1.4332,8.64857 0.47773,0.25949 0.95546,7.35065 1.43319,7.59924 0.47775,0.2486 0.95547,6.02441 1.43321,6.26192 0.47773,0.2375 0.95546,4.46103 1.43319,4.68725 0.47774,0.22623 0.95546,2.72019 1.4332,2.93496 0.47773,0.21478 0.95546,0.86828 1.43319,1.07144 0.47774,0.20315 0.95546,-1.02409 1.4332,-0.83271 0.47773,0.19138 0.95546,-2.88474 1.43319,-2.70528 0.47774,0.17945 0.95546,-4.64273 1.4332,-4.47533 0.47773,0.16739 0.95546,-6.23098 1.43319,-6.07578 0.47775,0.1552 0.95547,-7.58883 1.43321,-7.44594 0.47773,0.14289 0.95546,-8.66438 1.43319,-8.53391 0.47774,0.13046 0.95546,-9.4164 1.4332,-9.29847 0.47773,0.11794 0.95546,-9.81592 1.43319,-9.7106 0.47774,0.10531 0.95546,-9.84734 1.4332,-9.75472 0.47773,0.0926 0.95546,-9.50899 1.43319,-9.42914 0.47774,0.0798 0.95546,-8.81321 1.4332,-8.7462 0.47773,0.067 0.95546,-7.78592 1.43319,-7.73179 0.47775,0.0541 0.95547,-6.46555 1.43321,-6.42434 0.47773,0.0412 0.95546,-4.90167 1.43319,-4.87343 0.47774,0.0282 0.95546,-3.15307 1.4332,-3.13781 0.47773,0.0152 0.95546,-1.28554 1.43319,-1.28326 0.47774,0.002 0.95546,0.63063 1.4332,0.6199 0.47773,-0.0107 0.95546,2.52329 1.43319,2.49959 0.47774,-0.0237 0.95546,4.32121 1.4332,4.28453 0.47773,-0.0367 0.95546,5.95672 1.43319,5.9071 0.47775,-0.0496 0.95547,7.36831 1.43321,7.3058 0.47773,-0.0625 0.95546,8.50297 1.43319,8.4276 0.47774,-0.0754 0.95546,9.31817 1.4332,9.23001 0.47773,-0.0882 0.95546,9.7835 1.43319,9.68261 0.47774,-0.10089 0.95546,9.88178 1.4332,9.76824 0.47773,-0.11354 0.95546,9.60976 1.43319,9.48367 0.47774,-0.12609 0.95546,8.97822 1.4332,8.83966 0.47773,-0.13855 0.95546,8.01157 1.43319,7.86066 0.47774,-0.15091 0.95547,6.74686 1.43321,6.58372 0.47773,-0.16315 0.95546,5.23253 1.43319,5.05727 0.47773,-0.17525 0.95546,3.52639 1.4332,3.33917 0.47773,-0.18724 0.95546,1.69355 1.43319,1.49449 0.47773,-0.19906 0.95546,-0.19608 1.43319,-0.40681 0.47774,-0.21074 0.95547,-2.07046 1.4332,-2.2927 0.47773,-0.22224 0.95546,-3.85811 1.43319,-4.0917 0.47774,-0.23358 0.95547,-5.49088 1.4332,-5.73562 0.47774,-0.24474 0.95547,-6.90646 1.4332,-7.16217 0.47774,-0.25571 0.95546,-8.0508 1.4332,-8.31727 0.47773,-0.26648 0.95546,-8.88013 1.43319,-9.15717 0.47774,-0.27704 0.95546,-9.36262 1.4332,-9.65001 0.47773,-0.28739 0.95546,-9.47961 1.43319,-9.77712 0.47774,-0.29751 0.95546,-9.22627 1.4332,-9.53368 0.47773,-0.3074 0.95546,-8.61187 1.43319,-8.92893 0.47774,-0.31706 0.95546,-7.6593 1.4332,-7.98577 0.47774,-0.32647 0.95547,-6.40434 1.4332,-6.73997 0.47774,-0.33562 0.95546,-4.89419 1.4332,-5.23872 0.47773,-0.34451 0.95546,-3.18577 1.43319,-3.53892 0.47774,-0.35314 0.95546,-1.34351 1.4332,-1.70501 0.47773,-0.3615 0.95546,0.5631 1.43319,0.19352 0.47774,-0.36957 0.95546,2.46209 1.4332,2.08473 0.47773,-0.37736 0.95546,4.28176 1.43319,3.89691 0.47774,-0.38486 0.95546,5.95346 1.4332,5.56141 0.47774,-0.39205 0.95547,7.41408 1.4332,7.01514 0.47774,-0.39895 0.95546,8.60851 1.4332,8.20299 0.47773,-0.40552 0.95546,9.49175 1.43319,9.07997 0.47774,-0.4118 0.15937,10.03054 0.66763,9.6128 0.50826,-0.41773 1.18295,10.20471 1.77454,9.78134 0.59159,-0.42336 1.18318,10.00782 1.77477,9.57917 0.59159,-0.42866 1.18318,9.44755 1.77477,9.01394 0.59159,-0.43362 1.18318,8.54534 1.77477,8.10709 0.5916,-0.43824 1.18319,7.33553 1.77478,6.893 0.59159,-0.44253 1.18318,5.86414 1.77477,5.41767 0.59159,-0.44647 1.18318,4.18708 1.77477,3.73701 0.59159,-0.45007 1.18318,2.36802 1.77477,1.91471 0.59159,-0.45331 1.18318,0.47607 1.77477,0.0199 0.59159,-0.45622 1.18318,-1.417 1.77477,-1.87575 0.59159,-0.45875 1.18318,-3.23934 1.77477,-3.70028 0.59159,-0.46094 1.18318,-4.92179 1.77478,-5.38455 0.59159,-0.46277 1.18318,-6.40053 1.77477,-6.86477 0.59159,-0.46423 1.18318,-7.61946 1.77477,-8.0848 0.59159,-0.46535 1.18318,-8.53236 1.77477,-8.99845 0.59159,-0.46609 1.18318,-9.10456 1.77477,-9.57104 0.59159,-0.46648 1.18318,-9.3144 1.77477,-9.7809 0.59159,-0.46651 1.18318,-9.15392 1.77477,-9.62008 0.59159,-0.46617 1.18318,-8.6292 1.77477,-9.09467 0.59159,-0.46546 1.18318,-7.76015 1.77478,-8.22456 0.59159,-0.4644 1.18318,-6.57977 1.77477,-7.04275 0.59159,-0.46298 1.18318,-5.13284 1.77477,-5.59404 0.59159,-0.4612 1.18318,-3.47424 1.77477,-3.93331 0.59159,-0.45906 1.18318,-1.66693 1.77477,-2.1235 0.59159,-0.45657 1.18318,0.22049 1.77477,-0.23323 0.59159,-0.45372 1.18318,2.11641 1.77477,1.66589 0.59159,-0.45052 1.18318,3.94884 1.77477,3.50187 0.59159,-0.44697 1.18318,5.64821 1.77478,5.20513 0.59159,-0.44307 1.18318,7.14996 1.77477,6.71113 0.59159,-0.43883 1.18318,8.39703 1.77477,7.96278 0.59159,-0.43426 1.18318,9.34196 1.77477,8.91263 0.59159,-0.42933 1.18318,9.9488 1.77477,9.52472 0.59159,-0.42408 1.18318,10.19432 1.77477,9.77582 0.59159,-0.41851 1.18318,10.06902 1.77477,9.65642 0.59159,-0.4126 1.18318,9.57742 1.77477,9.17105 0.59159,-0.40637 1.18318,8.73795 1.77478,8.33812 0.59159,-0.39984 1.18318,7.58214 1.77477,7.18915 0.59159,-0.39298 1.18318,6.15358 1.77477,5.76775 0.59159,-0.38583 1.18318,4.50611 1.77477,4.12774 0.59159,-0.37838 1.18318,2.70191 1.77477,2.33129 0.59159,-0.37063 1.18318,0.80907 1.77477,0.44648 0.59159,-0.36258 1.18318,-1.10096 1.77477,-1.45523 0.59159,-0.35427 1.18318,-2.95613 1.77477,-3.3018 0.59159,-0.34568 1.18318,-4.68642 1.77478,-5.02324 0.59159,-0.33682 1.18318,-6.2266 1.77477,-6.5543 0.59159,-0.3277 1.18318,-7.51863 1.77477,-7.83695 0.59159,-0.31832 1.18318,-8.51389 1.77477,-8.82259 0.59159,-0.3087 1.18318,-9.17502 1.77477,-9.47386 0.59159,-0.29883 1.18318,-9.47733 1.77477,-9.76607 0.59159,-0.28875 1.18318,-9.40975 1.77477,-9.68817 0.59159,-0.27843 1.18318,-8.9752 1.77477,-9.24308 0.59159,-0.2679 1.18318,-8.19055 1.77478,-8.4477 0.59159,-0.25715 1.18318,-7.08593 1.77477,-7.33214 0.59159,-0.24621 1.18318,-5.70364 1.77477,-5.93871 0.59159,-0.23508 1.18318,-4.09645 1.77477,-4.3202 0.59159,-0.22376 1.18318,-2.3257 1.77477,-2.53797 0.59159,-0.21227 1.18318,-0.45892 1.77477,-0.65953 0.59159,-0.20062 1.18318,1.43269 1.77477,1.24388 0.59159,-0.1888 1.18318,3.27702 1.77477,3.10017 0.59159,-0.17685 1.18318,5.00371 1.77478,4.83895 0.59159,-0.16476 1.18318,6.54689 1.77477,6.39435 0.59159,-0.15255 1.18318,7.8476 1.77477,7.70739 0.59159,-0.1402 1.18318,8.8561 1.77477,8.72834 0.59159,-0.12775 1.18318,9.53371 1.77477,9.4185 0.59159,-0.11521 1.18318,9.85426 1.77477,9.75169 0.59159,-0.10257 1.18318,9.80516 1.77477,9.7153 0.59159,-0.0899 1.18318,9.38779 1.77477,9.31072 0.59159,-0.0771 1.18318,8.61748 1.77478,8.55325 0.59159,-0.0642 1.18318,7.52297 1.77477,7.47164 0.59159,-0.0513 1.18318,6.14524 1.77477,6.10685 0.59159,-0.0384 1.18318,4.53604 1.77477,4.5106 0.59159,-0.0254 1.18318,2.75588 1.77477,2.74343 0.59159,-0.0124 1.18318,0.87173 1.77477,0.87228 0.59159,5.1e-4 1.18318,-1.04549 1.77477,-1.03195 0.59159,0.0136 1.18318,-2.92358 1.77477,-2.89705 0.59159,0.0265 1.18318,-4.69185 1.77478,-4.65237 0.59159,0.0395 1.18318,-6.28376 1.77477,-6.23134 0.59159,0.0524 1.18318,-7.63949 1.77477,-7.57418 0.59159,0.0653 1.18318,-8.70809 1.77477,-8.62995 0.59159,0.0781 1.18318,-9.44957 1.77477,-9.35864 0.59159,0.0909 1.18318,-9.8363 1.77477,-9.73267 0.59159,0.10364 1.18318,-9.85407 1.77477,-9.73781 0.59159,0.11627 1.18318,-9.50272 1.77477,-9.37391 0.59159,0.1288 1.18318,-8.796 1.77478,-8.65475 0.59159,0.14124 1.18318,-7.76115 1.77477,-7.60757 0.59159,0.15357 1.18318,-6.43787 1.77477,-6.27208 0.59159,0.16578 1.18318,-4.87674 1.77477,-4.69887 0.59159,0.17786 1.18318,-3.1374 1.77477,-2.94759 0.59159,0.18981 1.18318,-1.28619 1.77477,-1.08459 0.59159,0.2016 1.18318,0.60627 1.77477,0.81952 0.59159,0.21324 1.18318,2.46784 1.77477,2.69255 0.59159,0.22472 1.18318,4.22754 1.77478,4.46356 0.59159,0.23602 1.18318,5.81826 1.77477,6.06539 0.59159,0.24713 1.18318,7.17929 1.77477,7.43735 0.59159,0.25806 1.18318,8.25866 1.77477,8.52744 0.59159,0.26879 1.18318,9.01504 1.77477,9.29434 0.59159,0.27931 1.18318,9.41941 1.77477,9.709 0.59159,0.2896 1.18318,9.45602 1.77477,9.7557 0.59159,0.29967 1.18318,9.12313 1.77477,9.43265 0.59159,0.30952 1.18318,8.433 1.77478,8.75212 0.59159,0.31912 1.18318,7.41141 1.77477,7.73989 0.59159,0.32848 1.18318,6.09675 1.77477,6.43433 0.59159,0.33757 1.18318,4.53849 1.77477,4.88489 0.59159,0.34642 1.18318,2.79537 1.77477,3.15035 0.59159,0.35498 1.18318,0.93311 1.77477,1.29639 0.59159,0.36328 1.18318,-0.97798 1.77477,-0.60669 0.59159,0.37128 1.18318,-2.8658 1.77477,-2.48679 0.59159,0.37901 1.18318,-4.65907 1.77478,-4.27263 0.59159,0.38644 1.18318,-6.29011 1.77477,-5.89654 0.59159,0.39357 1.18318,-7.69738 1.77477,-7.29699 0.59159,0.4004 1.18318,-8.82778 1.77477,-8.42087 0.59159,0.40691 1.18318,-9.63873 1.77477,-9.22562 0.59159,0.41311 1.18318,-10.0997 1.77477,-9.68072 0.59159,0.41898 1.18318,-10.19346 1.77477,-9.76893 0.59159,0.42454 1.18318,-9.91666 1.77477,-9.4869 0.59159,0.42976 1.18318,-9.27998 1.77478,-8.84533 0.59159,0.43465 1.18318,-8.30772 1.77477,-7.86852 0.59159,0.4392 1.18318,-7.03693 1.77477,-6.59351 0.59159,0.44341 1.18318,-5.51588 1.77477,-5.0686 0.59159,0.44728 1.18318,-3.80241 1.77477,-3.3516 0.59159,0.4508 1.18318,-1.96155 1.77477,-1.50758 0.59159,0.45398 1.18318,-0.0632 1.77477,0.39358 0.59159,0.45679 1.18318,1.82057 1.77477,2.27983 0.59159,0.45926 1.18318,3.61831 1.77478,4.07967 0.59159,0.46137 1.18318,5.26178 1.77477,5.72489 0.59159,0.46312 1.18318,6.68864 1.77477,7.15315 0.59159,0.46451 1.18318,7.84476 1.77477,8.3103 0.59159,0.46554 1.18318,8.6863 1.77477,9.15251 0.59159,0.4662 1.18318,9.18132 1.77477,9.64783 0.59159,0.46651 1.18318,9.31105 1.77477,9.77751 0.59159,0.46646 1.18318,9.0706 1.77477,9.53664 0.59159,0.46604 1.18319,8.46906 1.77478,8.93432 0.59159,0.46527 1.18318,7.52929 1.77477,7.99341 0.59159,0.46413 1.18318,6.28693 1.77477,6.74956 0.59159,0.46263 1.18318,4.78913 1.77477,5.24989 0.59159,0.46077 1.18318,3.09271 1.77477,3.55127 0.59159,0.45855 1.18318,1.26206 1.77477,1.71804 0.59159,0.45598 1.18318,-0.63334 1.77477,-0.18029 0.59159,0.45306 1.18318,-2.52156 1.77477,-2.07178 0.59159,0.44978 1.18319,-4.33092 1.77478,-3.88477 0.59159,0.44616 1.18318,-5.9927 1.77477,-5.55051 0.59159,0.44218 1.18318,-7.44378 1.77477,-7.00591 0.59159,0.43787 1.18318,-8.62899 1.77477,-8.19578 0.59159,0.43322 1.18318,-9.50325 1.77477,-9.07503 0.59159,0.42823 1.18318,-10.03325 1.77477,-9.61035 0.59159,0.4229 0.6781,-4.79209 1.26969,-4.37484"
       title="sin(7*x)"
       id="path36166"
       inkscape:connector-curvature="0"
       sodipodi:nodetypes="cccccssssssssssssssssssssssssssssssssssssssssccccsssscscscccccccccscsccscsccscssssssssssssssssssssssssssssssssssscssssssscsssssssssscsssssssssssscsssssssssssssccscscsscscccccccccccsccssscccssssssssssssssssssssssssssssssssscsscssssssssssssssssssssssscsssssssssssssssssssssssccscscsscscscccccscsscscsscccssssssssssscsssssssssssssssssssssssssssssssssssssssssssssc" />
    <path
       style="fill:none;fill-opacity:1;stroke:#000000;stroke-width:1;stroke-linecap:round;stroke-linejoin:miter;stroke-miterlimit:0;stroke-dasharray:none;stroke-opacity:1"
       d="m 28.571428,654.11653 637.142882,0 m -637.142882,50.24583 0,-100.49166"
       title="sin(7*x)"
       id="path36168"
       inkscape:connector-curvature="0"
       sodipodi:nodetypes="cccc" />
    <path
       style="fill:none;fill-rule:evenodd;stroke:#000000;stroke-width:0.71396071px;stroke-linecap:butt;stroke-linejoin:miter;stroke-opacity:1"
       d="m 257.5889,653.64439 0,-26.77559 114.14723,0 0,27.09741"
       id="path36170"
       inkscape:connector-curvature="0"
       sodipodi:nodetypes="ccc" />
    <path
       style="fill:none;fill-rule:evenodd;stroke:#000000;stroke-width:1;stroke-linecap:butt;stroke-linejoin:miter;stroke-miterlimit:4;stroke-dasharray:6,6;stroke-dashoffset:0;stroke-opacity:1"
       d="m 257.5889,626.99753 0,-173.14019"
       id="path36172"
       inkscape:connector-curvature="0"
       sodipodi:nodetypes="cc" />
    <path
       style="fill:none;fill-rule:evenodd;stroke:#000000;stroke-width:1;stroke-linecap:butt;stroke-linejoin:miter;stroke-miterlimit:4;stroke-dasharray:6,6;stroke-dashoffset:0;stroke-opacity:1"
       d="m 371.73614,381.12636 0,245.74244"
       id="path36174"
       inkscape:connector-curvature="0"
       sodipodi:nodetypes="cc" />
    <path
       style="fill:none;fill-rule:evenodd;stroke:#000000;stroke-width:1;stroke-linecap:butt;stroke-linejoin:miter;stroke-miterlimit:4;stroke-dasharray:6,6;stroke-dashoffset:0;stroke-opacity:1"
       d="m 400.48614,381.84065 0,73.00635"
       id="path36178"
       inkscape:connector-curvature="0"
       sodipodi:nodetypes="cc" />
    <path
       style="fill:none;fill-rule:evenodd;stroke:#000000;stroke-width:1px;stroke-linecap:butt;stroke-linejoin:miter;stroke-opacity:1;marker-start:url(#Arrow2Mstart);marker-end:url(#Arrow2Mend)"
       d="m 371.42857,380.93361 28.92857,0"
       id="path36180"
       inkscape:connector-curvature="0" />
    <text
       xml:space="preserve"
       style="font-style:normal;font-weight:normal;font-size:17.5px;line-height:125%;font-family:Verdana;letter-spacing:0px;word-spacing:0px;fill:#000000;fill-opacity:1;stroke:none;stroke-width:1px;stroke-linecap:butt;stroke-linejoin:miter;stroke-opacity:1;-inkscape-font-specification:Verdana;font-stretch:normal;font-variant:normal;"
       x="379.5159"
       y="374.62112"
       id="text36618"
       sodipodi:linespacing="125%"><tspan
         sodipodi:role="line"
         id="tspan36622"
         x="379.5159"
         y="374.62112"
         style="font-size:17.5px;-inkscape-font-specification:Verdana;font-family:Verdana;font-weight:normal;font-style:normal;font-stretch:normal;font-variant:normal;">Φ</tspan></text>
    <path
       style="fill:#696969;fill-opacity:1;stroke:#000000;stroke-width:1.023;stroke-linecap:round;stroke-linejoin:miter;stroke-miterlimit:4;stroke-dasharray:none;stroke-dashoffset:0;stroke-opacity:1"
       d="m 258.20463,640.66209 0,-12.78508 56.76575,0 56.76575,0 0,12.78508 0,12.78508 -56.76575,0 -56.76575,0 0,-12.78508 z"
       id="path36624"
       inkscape:connector-curvature="0" />
    <text
       xml:space="preserve"
       style="font-style:normal;font-variant:normal;font-weight:normal;font-stretch:normal;font-size:17.5px;line-height:125%;font-family:Verdana;-inkscape-font-specification:Verdana;letter-spacing:0px;word-spacing:0px;fill:#000000;fill-opacity:1;stroke:none;stroke-width:1px;stroke-linecap:butt;stroke-linejoin:miter;stroke-opacity:1"
       x="-137.0587"
       y="460.83917"
       id="text36626"
       sodipodi:linespacing="125%"><tspan
         sodipodi:role="line"
         id="tspan36628"
         x="-137.0587"
         y="460.83917">Reference Proton</tspan></text>
    <text
       xml:space="preserve"
       style="font-style:normal;font-weight:normal;font-size:40px;line-height:125%;font-family:sans-serif;letter-spacing:0px;word-spacing:0px;fill:#000000;fill-opacity:1;stroke:none;stroke-width:1px;stroke-linecap:butt;stroke-linejoin:miter;stroke-opacity:1"
       x="187.88837"
       y="427.07776"
       id="text36630"
       sodipodi:linespacing="125%"><tspan
         sodipodi:role="line"
         id="tspan36632"
         x="187.88837"
         y="427.07776" /></text>
    <text
       xml:space="preserve"
       style="font-style:normal;font-variant:normal;font-weight:normal;font-stretch:normal;font-size:17.5px;line-height:125%;font-family:Verdana;-inkscape-font-specification:Verdana;letter-spacing:0px;word-spacing:0px;fill:#000000;fill-opacity:1;stroke:none;stroke-width:1px;stroke-linecap:butt;stroke-linejoin:miter;stroke-opacity:1"
       x="-146.21837"
       y="557.92505"
       id="text36634"
       sodipodi:linespacing="125%"><tspan
         sodipodi:role="line"
         id="tspan36636"
         x="-146.21837"
         y="557.92505">Proton in Gradient</tspan></text>
    <text
       xml:space="preserve"
       style="font-style:normal;font-variant:normal;font-weight:normal;font-stretch:normal;font-size:17.5px;line-height:125%;font-family:Verdana;-inkscape-font-specification:Verdana;letter-spacing:0px;word-spacing:0px;fill:#000000;fill-opacity:1;stroke:none;stroke-width:1px;stroke-linecap:butt;stroke-linejoin:miter;stroke-opacity:1"
       x="-101.01525"
       y="658.38239"
       id="text36638"
       sodipodi:linespacing="125%"><tspan
         sodipodi:role="line"
         id="tspan36640"
         x="-101.01525"
         y="658.38239">Gradient</tspan></text>
  </g>
</svg>
